<?xml version="1.0" encoding="utf-8"?>
<!-- Generator: Adobe Illustrator 17.1.0, SVG Export Plug-In . SVG Version: 6.00 Build 0)  -->
<!DOCTYPE svg PUBLIC "-//W3C//DTD SVG 1.1//EN" "http://www.w3.org/Graphics/SVG/1.1/DTD/svg11.dtd">
<svg version="1.1" xmlns="http://www.w3.org/2000/svg" xmlns:xlink="http://www.w3.org/1999/xlink" x="0px" y="0px"
	 viewBox="0 0 850.394 850.394" enable-background="new 0 0 850.394 850.394" xml:space="preserve">
<g id="Layer_1">
</g>
<g id="Layer_2">
	<linearGradient id="SVGID_1_" gradientUnits="userSpaceOnUse" x1="425.1968" y1="122.6234" x2="425.1968" y2="743.8307">
		<stop  offset="0" style="stop-color:#35C3EE"/>
		<stop  offset="1" style="stop-color:#2564AF"/>
	</linearGradient>
	<path fill="url(#SVGID_1_)" d="M712.393,670.556c0.071-0.241,0.128-0.481,0.18-0.727c0.116-0.544,0.181-1.087,0.204-1.635
		c0.006-0.148,0.054-0.286,0.054-0.435V370.685c0-3.681-2.022-7.064-5.261-8.807c-3.239-1.745-7.174-1.569-10.251,0.457
		l-81.514,53.785v-95.698l43.466-25.095c0.084-0.049,0.151-0.126,0.234-0.178c0.654-0.403,1.265-0.859,1.8-1.389
		c0.179-0.178,0.312-0.404,0.478-0.597c0.406-0.469,0.795-0.947,1.106-1.481c0.039-0.068,0.099-0.115,0.137-0.184
		c0.294-0.532,0.512-1.083,0.7-1.638c0.021-0.063,0.058-0.119,0.078-0.182c0.234-0.738,0.359-1.489,0.417-2.242
		c0.005-0.061,0.029-0.116,0.033-0.177l6.926-115.933c0-0.003,0-0.005,0-0.008l0.002-0.026c0.001-0.017,0.001-0.034,0.003-0.051
		l0.001-0.019c0.005-0.084-0.013-0.162-0.01-0.246c0.007-0.218-0.015-0.433-0.022-0.65c-0.009-0.324,0.009-0.647-0.033-0.971
		c-0.003-0.028-0.011-0.054-0.015-0.082c-0.044-0.326-0.144-0.632-0.218-0.948c-0.004-0.017-0.007-0.034-0.011-0.05
		c-0.072-0.295-0.118-0.592-0.218-0.883c-0.112-0.327-0.272-0.627-0.417-0.938c-0.121-0.263-0.217-0.537-0.361-0.789
		c-0.007-0.013-0.01-0.027-0.018-0.04c-0.007-0.012-0.017-0.021-0.024-0.033c-0.152-0.26-0.347-0.488-0.521-0.733
		c-0.191-0.27-0.364-0.55-0.583-0.801c-0.228-0.262-0.491-0.478-0.741-0.712c-0.223-0.207-0.424-0.431-0.667-0.62
		c-0.021-0.016-0.038-0.035-0.059-0.051c-0.335-0.256-0.703-0.454-1.065-0.663c-0.09-0.053-0.172-0.115-0.264-0.165
		c-0.092-0.05-0.167-0.119-0.262-0.166l-0.023-0.011c-0.011-0.006-0.022-0.011-0.034-0.017l-0.011-0.006
		c-0.013-0.006-0.025-0.013-0.039-0.019l-103.851-51.962c-0.054-0.027-0.114-0.033-0.168-0.059c-0.682-0.327-1.396-0.594-2.155-0.76
		c-0.049-0.011-0.099-0.008-0.148-0.018c-0.589-0.12-1.191-0.206-1.813-0.218c-0.104-0.003-0.197,0.021-0.3,0.021
		c-0.191,0.002-0.378,0.028-0.57,0.041c-0.683,0.038-1.34,0.137-1.973,0.302c-0.042,0.011-0.082,0.023-0.124,0.035
		c-1.099,0.302-2.116,0.762-3.013,1.393L294.972,258.485c-3.186,1.84-5.107,5.283-4.997,8.961c0.109,3.679,2.231,7,5.523,8.647
		l87.337,43.701l-82.833,47.824l-43.497-25.113c-0.123-0.071-0.261-0.097-0.386-0.163c-0.486-0.255-0.99-0.468-1.52-0.641
		c-0.224-0.073-0.442-0.148-0.669-0.205c-0.547-0.137-1.113-0.216-1.691-0.259c-0.189-0.014-0.371-0.052-0.56-0.056
		c-0.059-0.001-0.113-0.017-0.172-0.017c-0.064,0-0.129,0-0.195,0.002c-0.628,0.012-1.237,0.098-1.831,0.22
		c-0.042,0.009-0.086,0.006-0.129,0.015c-0.759,0.166-1.475,0.433-2.157,0.761c-0.055,0.026-0.114,0.032-0.168,0.059l-103.85,51.965
		c-0.014,0.007-0.026,0.013-0.04,0.02l-0.01,0.005c-0.011,0.005-0.021,0.01-0.031,0.016l-0.024,0.012
		c-0.101,0.05-0.181,0.124-0.279,0.177c-0.07,0.038-0.133,0.086-0.203,0.126c-0.378,0.217-0.762,0.425-1.112,0.693
		c-0.02,0.015-0.035,0.033-0.054,0.048c-0.24,0.186-0.439,0.406-0.657,0.61c-0.256,0.238-0.523,0.457-0.755,0.724
		c-0.225,0.258-0.401,0.546-0.598,0.823c-0.167,0.236-0.356,0.455-0.501,0.705c-0.008,0.013-0.02,0.024-0.027,0.037
		c-0.008,0.013-0.011,0.027-0.018,0.04c-0.151,0.265-0.253,0.551-0.379,0.828c-0.136,0.297-0.29,0.583-0.397,0.894
		c-0.101,0.293-0.148,0.591-0.221,0.888c-0.008,0.031-0.014,0.062-0.021,0.094c-0.07,0.301-0.165,0.592-0.207,0.903
		c-0.004,0.029-0.012,0.056-0.016,0.084c-0.043,0.33-0.024,0.659-0.033,0.989c-0.006,0.205-0.027,0.408-0.021,0.613
		c0.003,0.09-0.017,0.175-0.011,0.265l0.001,0.022c0.001,0.015,0.002,0.031,0.003,0.046l0.002,0.028c0,0.003,0,0.005,0,0.008
		l6.924,115.933c0.004,0.061,0.028,0.117,0.033,0.177c0.058,0.751,0.183,1.501,0.416,2.237c0.022,0.07,0.063,0.132,0.087,0.202
		c0.187,0.549,0.402,1.094,0.693,1.619c0.037,0.068,0.097,0.115,0.135,0.181c0.316,0.543,0.71,1.028,1.122,1.503
		c0.161,0.186,0.289,0.404,0.462,0.576c0.559,0.555,1.194,1.038,1.883,1.453c0.053,0.032,0.096,0.082,0.149,0.113
		c0.001,0.001,0.002,0.001,0.003,0.002l257.275,148.539c1.549,0.895,3.276,1.34,5.001,1.34c1.825,0,3.647-0.5,5.257-1.493
		c3.132-1.934,4.947-5.431,4.728-9.108l-5.823-97.483l82.861,47.84v50.241c0,0.148,0.048,0.287,0.054,0.434
		c0.023,0.549,0.089,1.092,0.205,1.637c0.052,0.246,0.108,0.484,0.179,0.724c0.144,0.493,0.339,0.971,0.564,1.447
		c0.107,0.227,0.196,0.458,0.32,0.677c0.045,0.08,0.068,0.167,0.116,0.246c0.143,0.237,0.345,0.409,0.503,0.629
		c0.294,0.409,0.585,0.813,0.94,1.175c0.282,0.288,0.593,0.524,0.904,0.773c0.243,0.196,0.445,0.433,0.709,0.607l97.025,64.021
		c0.041,0.027,0.089,0.034,0.13,0.061c0.119,0.076,0.251,0.131,0.374,0.202c0.218,0.126,0.432,0.248,0.657,0.357
		c0.386,0.188,0.786,0.34,1.198,0.478c0.179,0.06,0.351,0.129,0.532,0.179c0.126,0.034,0.247,0.073,0.375,0.103
		c0.714,0.164,1.448,0.268,2.211,0.271c0.007,0,0.015,0.003,0.022,0.003c0.001,0,0.003,0,0.004,0s0.003,0,0.005,0s0.004,0,0.005,0
		s0.003,0,0.004,0c0.008,0,0.015-0.003,0.022-0.003c0.763-0.002,1.498-0.107,2.211-0.271c0.127-0.029,0.248-0.068,0.374-0.103
		c0.182-0.049,0.354-0.119,0.533-0.179c0.412-0.137,0.812-0.29,1.198-0.477c0.225-0.109,0.439-0.23,0.656-0.356
		c0.122-0.071,0.254-0.126,0.374-0.203c0.042-0.027,0.089-0.033,0.13-0.061l97.025-64.021c0.265-0.175,0.468-0.412,0.713-0.61
		c0.309-0.247,0.618-0.482,0.899-0.769c0.356-0.364,0.648-0.768,0.943-1.179c0.158-0.22,0.359-0.391,0.502-0.627
		c0.048-0.079,0.071-0.166,0.116-0.246c0.124-0.219,0.214-0.45,0.321-0.678C712.055,671.526,712.249,671.048,712.393,670.556z
		 M692.826,650.047l-77.02-46.447V440.09l77.02-50.821V650.047z M263.557,458.613l-1.715-89.927l129.792,74.937
		c0.04,0.025,0.067,0.063,0.107,0.088c0.061,0.037,0.13,0.048,0.191,0.084l95.75,55.282l-82.524,41.29L263.557,458.613z
		 M163.518,502.802l-4.877-81.662l74.682,43.118L163.518,502.802z M243.325,446.933l-74.682-43.118l73.162-36.609L243.325,446.933z
		 M413.594,325.135l141.603-81.754l78.734,43.477L408.091,417.248L413.594,325.135z M566.945,134.651l73.162,36.607l-74.682,43.118
		L566.945,134.651z M645.231,270.246L575.428,231.7l74.682-43.118L645.231,270.246z M417.031,435.186l81.745-47.195v94.391
		L417.031,435.186z M518.781,611.297c-0.004-0.09,0.007-0.179,0-0.269V389.27l77.02,50.821v163.509l-77.02,46.447V611.297z
		 M595.801,626.959v86.235l-68.285-45.056L595.801,626.959z M615.806,626.959l68.284,41.179l-68.284,45.056V626.959z
		 M595.801,416.12l-68.015-44.879l68.015-39.269V416.12z M546.908,136.131l-1.714,89.925L403.591,307.81l-82.523-41.292
		L546.908,136.131z M392.837,337.119l-4.856,81.295l-67.975-39.246L392.837,337.119z M400.66,649.805l-225.84-130.391l78.736-43.475
		l141.603,81.755L400.66,649.805z M425.913,552.35l72.862-36.456v78.523L425.913,552.35z"/>
</g>
</svg>
